<?xml version="1.0" encoding="iso-8859-1"?>
<!-- Uploaded to: SVG Repo, www.svgrepo.com, Transformed by: SVG Repo Mixer Tools -->
<svg height="800px" width="800px" version="1.1" id="Layer_1" xmlns="http://www.w3.org/2000/svg" xmlns:xlink="http://www.w3.org/1999/xlink" 
	 viewBox="0 0 512 512" xml:space="preserve">
<g>
	<path style="fill:#FFC61B;" d="M256,146.531c-73.149,0-132.66-59.511-132.66-132.66C123.34,6.21,129.551,0,137.212,0
		c7.661,0,13.872,6.21,13.872,13.872c0,57.852,47.065,104.917,104.917,104.917c48.519,0,104.917-45.83,104.917-104.917
		C360.917,6.21,367.127,0,374.788,0c7.661,0,13.872,6.21,13.872,13.872C388.661,89.798,318.622,146.531,256,146.531z"/>
	<path style="fill:#FFC61B;" d="M374.79,512c-7.661,0-13.872-6.21-13.872-13.872c0-57.852-47.065-104.917-104.917-104.917
		s-104.917,47.065-104.917,104.917c0,7.661-6.21,13.872-13.872,13.872c-7.661,0-13.872-6.21-13.872-13.872
		c0-73.149,59.511-132.66,132.66-132.66s132.66,59.511,132.66,132.66C388.661,505.79,382.451,512,374.79,512z"/>
</g>
<circle style="fill:#FEE187;" cx="256.001" cy="256.001" r="119.906"/>
<g>
	<path style="fill:#FFC61B;" d="M256,389.772c-73.762,0-133.772-60.01-133.772-133.772S182.238,122.227,256,122.227
		s133.772,60.01,133.772,133.772S329.762,389.772,256,389.772z M256,149.97c-58.465,0-106.029,47.564-106.029,106.029
		S197.535,362.028,256,362.028s106.029-47.564,106.029-106.029S314.465,149.97,256,149.97z"/>
	<path style="fill:#FFC61B;" d="M289.905,67.319H144.838c-7.661,0-13.872-6.21-13.872-13.872s6.21-13.872,13.872-13.872h145.067
		c7.661,0,13.872,6.21,13.872,13.872S297.566,67.319,289.905,67.319z"/>
	<path style="fill:#FFC61B;" d="M367.163,472.423H222.096c-7.661,0-13.872-6.21-13.872-13.872s6.21-13.872,13.872-13.872h145.067
		c7.661,0,13.872,6.21,13.872,13.872S374.823,472.423,367.163,472.423z"/>
	<path style="fill:#FFC61B;" d="M291.362,206.93H155.744c-7.661,0-13.872-6.21-13.872-13.872s6.21-13.872,13.872-13.872h135.617
		c7.661,0,13.872,6.21,13.872,13.872S299.023,206.93,291.362,206.93z"/>
	<path style="fill:#FFC61B;" d="M356.257,332.813H220.64c-7.661,0-13.872-6.21-13.872-13.872s6.21-13.872,13.872-13.872h135.617
		c7.661,0,13.872,6.21,13.872,13.872S363.918,332.813,356.257,332.813z"/>
	<path style="fill:#FFC61B;" d="M375.901,269.871H136.099c-7.661,0-13.872-6.21-13.872-13.872s6.21-13.872,13.872-13.872h239.801
		c7.661,0,13.872,6.21,13.872,13.872S383.562,269.871,375.901,269.871z"/>
</g>
</svg>